<svg xmlns="http://www.w3.org/2000/svg" version="1.1" xmlns:xlink="http://www.w3.org/1999/xlink" xmlns:svgjs="http://svgjs.dev/svgjs" width="1440" height="560" preserveAspectRatio="none" viewBox="0 0 1440 560"><g mask="url(&quot;#SvgjsMask1508&quot;)" fill="none"><rect width="1440" height="560" x="0" y="0" fill="url(&quot;#SvgjsLinearGradient1509&quot;)"></rect><path d="M1512 560L0 560 L0 342.54Q72.27 294.81, 120 367.08Q122.52 297.6, 192 300.12Q275.04 263.16, 312 346.2Q340.51 302.71, 384 331.22Q436.44 311.67, 456 364.11Q506.15 294.26, 576 344.42Q605.95 254.37, 696 284.32Q744.88 261.2, 768 310.09Q839.14 261.23, 888 332.37Q941.98 266.35, 1008 320.33Q1051.91 244.24, 1128 288.15Q1217.62 257.77, 1248 347.39Q1290.39 317.78, 1320 360.17Q1355.88 276.06, 1440 311.94Q1470.29 270.23, 1512 300.52z" fill="#182f5d"></path><path d="M1560 560L0 560 L0 404.59Q53.02 385.61, 72 438.62Q96.29 390.91, 144 415.21Q198.85 350.06, 264 404.91Q317.78 386.69, 336 440.47Q384.78 369.25, 456 418.03Q505.93 347.95, 576 397.88Q591.09 340.97, 648 356.06Q718.13 306.19, 768 376.33Q839.09 327.42, 888 398.51Q902.09 340.6, 960 354.68Q1003.18 325.87, 1032 369.05Q1100.91 365.97, 1104 434.88Q1131.59 390.47, 1176 418.06Q1205.06 375.12, 1248 404.17Q1273.35 357.51, 1320 382.86Q1398.89 341.75, 1440 420.64Q1512.53 373.17, 1560 445.71z" fill="#25467d"></path><path d="M1464 560L0 560 L0 439.83Q95.58 415.41, 120 510.99Q135.15 454.14, 192 469.3Q240.73 398.03, 312 446.77Q400.63 415.4, 432 504.03Q473.87 473.9, 504 515.77Q518.16 457.93, 576 472.09Q602.16 426.25, 648 452.4Q732 416.4, 768 500.41Q796.87 409.27, 888 438.14Q969.82 399.95, 1008 481.77Q1057.16 458.93, 1080 508.09Q1093.94 450.03, 1152 463.98Q1172.63 412.61, 1224 433.24Q1291.19 380.43, 1344 447.62Q1433.55 417.16, 1464 506.71z" fill="#356cb1"></path><path d="M1488 560L0 560 L0 537.64Q52.06 517.7, 72 569.76Q97.66 475.42, 192 501.09Q266.56 455.65, 312 530.21Q363.61 509.82, 384 561.43Q434.97 492.4, 504 543.37Q527.71 495.08, 576 518.79Q605.09 475.88, 648 504.97Q735.22 472.19, 768 559.42Q833.79 505.21, 888 571Q930.26 541.26, 960 583.53Q974.98 526.51, 1032 541.49Q1074.34 511.83, 1104 554.16Q1152.72 530.88, 1176 579.6Q1183.05 514.64, 1248 521.69Q1318.21 471.9, 1368 542.12Q1412.53 466.65, 1488 511.18z" fill="white"></path></g><defs><mask id="SvgjsMask1508"><rect width="1440" height="560" fill="#ffffff"></rect></mask><linearGradient x1="15.28%" y1="-39.29%" x2="84.72%" y2="139.29%" gradientUnits="userSpaceOnUse" id="SvgjsLinearGradient1509"><stop stop-color="#0e2a47" offset="0"></stop><stop stop-color="rgba(0, 69, 158, 0.53)" offset="1"></stop></linearGradient></defs></svg>