<svg xmlns="http://www.w3.org/2000/svg" version="1.1" xmlns:xlink="http://www.w3.org/1999/xlink" xmlns:svgjs="http://svgjs.dev/svgjs" width="1440" height="560" preserveAspectRatio="none" viewBox="0 0 1440 550"><g mask="url(&quot;#SvgjsMask1017&quot;)" fill="none"><path d="M0 41.31C41.08 14.48 75.96 62.11 140 48.57C173.64 41.46 162.78 11.3 195.35 0C232.78 -12.99 237.67 0 280 0C350 0 350 0 420 0C490 0 490 0 560 0C630 0 630 0 700 0C762.03 0 766.02 -8.29 824.05 0C836.02 1.71 830.23 20 840 20C854.79 20 854.54 2.66 873.16 0C924.54 -7.34 926.58 0 980 0C1024.13 0 1026.09 -8.05 1068.26 0C1096.09 5.32 1091.93 24.83 1120 26.74C1187.8 31.36 1191.71 24.57 1260 13.07C1271.14 11.2 1267.71 1.04 1278.85 0C1337.71 -5.49 1339.43 0 1400 0C1446.32 0 1475.05 -27.87 1492.65 0C1519.26 42.13 1474.3 74.54 1488.42 140C1497.97 184.27 1524.27 176.75 1540 219.46C1550.06 246.75 1540 249.73 1540 280C1540 350 1540 350 1540 420C1540 490 1570.78 520.78 1540 560C1515.84 590.78 1448.78 590.52 1430.13 560C1406 520.52 1442.52 490.04 1454.44 420C1466.35 350.04 1494.26 337.52 1477.78 280C1467.04 242.52 1442.82 234.42 1400 230C1333.93 223.18 1330.66 251.33 1260 257.53C1190.66 263.61 1186.13 245.7 1120 254.55C1102.13 256.94 1092 267.27 1092 280C1092 292.73 1105.05 293.88 1120 305.45C1189.05 358.88 1189.39 358.65 1260 410C1268.14 415.92 1273.98 410.89 1277.5 420C1302.95 485.89 1324.19 509.91 1317.93 560C1315.44 579.91 1288.97 560 1260 560C1190 560 1190 560 1120 560C1050 560 1050 560 980 560C910 560 910 560 840 560C770 560 770 560 700 560C630 560 630 560 560 560C490 560 490 560 420 560C350 560 350 560 280 560C210 560 210 560 140 560C70 560 35 595 0 560C-35 525 0 490 0 420C0 390.84 -8.42 388.73 0 361.67C13.36 318.73 43.56 316.28 43.56 280C43.56 258.25 7.5 269.72 0 245.61C-14.28 199.72 0 192.81 0 140C0 90.66 -28.92 60.2 0 41.31" stroke="rgba(255, 89, 86, 1)" stroke-width="2"></path><path d="M420 124.63C410.65 124.63 404.05 130.88 404.05 140C404.05 155.15 408.97 173.16 420 173.16C434.45 173.16 455 153.53 455 140C455 129.27 436.13 124.63 420 124.63" stroke="rgba(250, 245, 238, 1)" stroke-width="2"></path><path d="M0 98.69C54.19 90.95 79.44 141.6 140 120C217.81 92.25 207.97 58.94 276.74 0C277.97 -1.06 278.37 0 280 0C350 0 350 0 420 0C468.69 0 517.39 -17.76 517.39 0C517.39 23.21 467.56 39.71 420 81.95C388.74 109.71 359.75 105.56 359.75 140C359.75 197.22 388.47 203.49 420 265.26C424.2 273.49 431.2 272.63 431.2 280C431.2 287.37 427.4 294.74 420 294.74C406.24 294.74 405.14 285.57 388.89 280C335.14 261.59 334.19 246.78 280 246.78C230.74 246.78 198.43 243.41 182 280C159.54 330.02 213.93 354.93 202.22 420C192.93 471.6 171.61 467.01 140 513.33C123.84 537.01 131.15 551.84 106.67 560C61.15 575.18 28.17 585.17 0 560C-25.17 537.51 -16.81 503.9 0 464.68C13.19 433.9 40.07 450.34 60 420C100.73 358 136.25 338.61 121.33 280C106.25 220.72 47.17 238.64 0 184.21C-13.49 168.64 0 162.11 0 140C0 119.35 -15.81 100.95 0 98.69" stroke="rgba(255, 89, 86, 1)" stroke-width="2"></path><path d="M552.22 140C552.22 134.62 557.48 134.58 560 127.83C583.64 64.58 563.5 37.48 604.55 0C633.5 -26.43 652.28 0 700 0C739.88 0 748.1 -17.08 779.75 0C818.1 20.7 803.1 75.56 840 75.56C895.86 75.56 901.67 34.32 965.26 0C971.67 -3.46 972.63 0 980 0C986.09 0 986.71 -2.58 992.17 0C1056.71 30.46 1052.16 50.94 1120 66.07C1186.07 80.81 1195.31 78.63 1260 59.73C1308.39 45.59 1299.91 19.73 1346.15 0C1369.91 -10.14 1373.07 0 1400 0C1420.59 0 1438.12 -15.85 1441.18 0C1451.63 54.15 1443.18 74.26 1427.02 140C1422.59 158.01 1417.29 159.8 1400 167.5C1333.78 196.96 1331.85 202.19 1260 214.32C1191.85 225.82 1182.55 195.37 1120 214.77C1076.68 228.21 1048.25 247.38 1048.25 280C1048.25 312.62 1083.1 313.81 1120 345.23C1165.31 383.81 1189.81 370.68 1212.68 420C1239.59 478.06 1246.65 519.07 1219.56 560C1200.31 589.07 1169.78 560 1120 560C1072.34 560 1045.81 588.32 1024.68 560C993.59 518.32 1031.69 485.23 1015.56 420C1009.35 394.86 996.82 400.42 980 379.27C941.13 330.42 943.34 328.62 904.17 280C873.34 241.72 875.81 238.78 840 205.48C800.53 168.78 796.91 172.61 753.62 140C726.91 119.87 730.18 100 700 100C640.37 100 636.8 119.44 574 140C566.8 142.36 566.64 145.83 560 145.83C555.75 145.83 552.22 143.62 552.22 140" stroke="rgba(250, 245, 238, 1)" stroke-width="2"></path><path d="M227.5 560C227.5 552.83 252.71 544.1 280 532.9C348.96 504.61 347.81 492.29 420 481.03C487.81 470.45 490.19 491.36 560 489.23C630.19 487.09 630.7 468.49 700 472.5C770.7 476.6 773.4 480.47 840 505.45C890.06 524.22 933.33 545.36 933.33 560C933.33 572.64 886.66 560 840 560C770 560 770 560 700 560C630 560 630 560 560 560C490 560 490 560 420 560C350 560 350 560 280 560C253.75 560 227.5 566.38 227.5 560" stroke="rgba(250, 245, 238, 1)" stroke-width="2"></path><path d="M1474.43 560C1474.43 527.07 1522.18 458.43 1540 458.43C1554.97 458.43 1559.92 529.14 1540 560C1527.14 579.92 1474.43 577.86 1474.43 560" stroke="rgba(255, 89, 86, 1)" stroke-width="2"></path><path d="M206.32 140C206.32 110.77 248.79 76.36 280 76.36C303.35 76.36 315.44 109.36 315.44 140C315.44 164.91 302 187.46 280 187.46C247.44 187.46 206.32 166.32 206.32 140" stroke="rgba(250, 245, 238, 1)" stroke-width="2"></path><path d="M420 39.27C387.51 39.27 351.49 10.51 351.49 0C351.49 -9.12 385.75 0 420 0C443.34 0 466.67 -8.51 466.67 0C466.67 11.12 445.1 39.27 420 39.27" stroke="rgba(255, 89, 86, 1)" stroke-width="2"></path><path d="M700 44.44C679.78 44.44 657.58 13.14 657.58 0C657.58 -9.08 678.79 0 700 0C717.72 0 735.44 -8.53 735.44 0C735.44 13.69 718.71 44.44 700 44.44" stroke="rgba(250, 245, 238, 1)" stroke-width="2"></path><path d="M828.09 140C828.09 135.53 833.32 134.33 840 131.11C909.27 97.74 907.93 73.44 980 66.82C1047.93 60.58 1048.72 95.31 1120 105.39C1188.72 115.1 1192.13 95.66 1260 106.4C1301.51 112.97 1338.75 123.73 1338.75 140C1338.75 156.09 1301.21 164.52 1260 171.11C1191.84 182.02 1180.42 149.25 1120 175C1052.67 203.7 1059.31 224.94 1004.5 280C989.31 295.26 992.7 315.64 980 315.64C966.84 315.64 967.2 297.16 952.78 280C897.2 213.86 897.38 213.46 840 149.03C835.04 143.46 828.09 144.49 828.09 140" stroke="rgba(250, 245, 238, 1)" stroke-width="2"></path><path d="M1071.11 420C1074.2 394.07 1096.06 385 1120 385C1142.19 385 1160.3 395.29 1163.38 420C1171.19 482.79 1160.58 499.33 1141.78 560C1138.89 569.33 1130.89 560 1120 560C1109.57 560 1102.26 568.92 1099.15 560C1077.82 498.92 1063.77 481.57 1071.11 420" stroke="rgba(255, 89, 86, 1)" stroke-width="2"></path><path d="M0 539.15C7 539.15 23.33 554.03 23.33 560C23.33 564.45 6.16 565.51 0 560C-5.51 555.08 -4.66 539.15 0 539.15" stroke="rgba(250, 245, 238, 1)" stroke-width="2"></path><path d="M350 560C350 551.02 382.48 531.67 420 525.9C487.48 515.52 491.89 517.21 560 527.69C602.73 534.26 641.67 551.63 641.67 560C641.67 567.78 600.84 560 560 560C490 560 490 560 420 560C385 560 350 568.07 350 560" stroke="rgba(250, 245, 238, 1)" stroke-width="2"></path><path d="M805 560C805 557.69 823.13 550.91 840 550.91C848.41 550.91 855.56 557.56 855.56 560C855.56 562.11 847.78 560 840 560C822.5 560 805 562.24 805 560" stroke="rgba(255, 89, 86, 1)" stroke-width="2"></path><path d="M1518.73 560C1518.73 549.32 1534.22 527.06 1540 527.06C1544.86 527.06 1546.46 549.99 1540 560C1535.83 566.46 1518.73 565.79 1518.73 560" stroke="rgba(255, 89, 86, 1)" stroke-width="2"></path></g><defs><mask id="SvgjsMask1017"><rect width="1440" height="560" fill="#ffffff"></rect></mask></defs></svg>