<svg xmlns="http://www.w3.org/2000/svg" version="1.1" xmlns:xlink="http://www.w3.org/1999/xlink" xmlns:svgjs="http://svgjs.dev/svgjs" width="1440" height="560" preserveAspectRatio="none" viewBox="0 0 1440 560"><g mask="url(&quot;#SvgjsMask2919&quot;)" fill="none"><rect width="1440" height="560" x="0" y="0" fill="url(&quot;#SvgjsLinearGradient2920&quot;)"></rect><path d="M0 37.63C6.34 13.77 13.43 6.4 37.23 0C83.43 -12.42 88.62 0 140 0C210 0 210 0 280 0C335.41 0 338.85 -9.28 390.83 0C408.85 3.22 403.63 25 420 25C445.84 25 446.06 5.21 475.26 0C516.06 -7.29 517.63 0 560 0C598.34 0 627.85 -24.49 636.67 0C653.05 45.51 591.55 87.4 610.4 140C623.21 175.76 656.64 176.72 700 176.72C731.71 176.72 751.24 169.67 760.54 140C778.95 81.31 730.65 43.65 755.42 0C770.38 -26.35 797.71 0 840 0C880.6 0 883.51 -10.02 921.2 0C953.51 8.59 952.84 37.22 980 37.22C1000.17 37.22 992.64 6.17 1015.85 0C1062.64 -12.44 1067.93 0 1120 0C1170.84 0 1177.09 -13.85 1221.67 0C1247.09 7.9 1233.89 37.56 1260 43.51C1323.05 57.88 1334 54.9 1400 40.65C1434.73 33.15 1427.58 9.84 1461.46 0C1497.58 -10.49 1524.76 -24.03 1540 0C1564.03 37.89 1543.89 62.93 1540 123.85C1539.42 132.93 1531.06 132.45 1531.06 140C1531.06 145.41 1539.59 143.31 1540 149.77C1544.06 213.31 1540 214.88 1540 280C1540 350 1540 350 1540 420C1540 490 1575 525 1540 560C1505 595 1470 560 1400 560C1344.26 560 1326.32 584.46 1288.52 560C1256.32 539.16 1287.77 503.96 1260 469.41C1231.51 433.96 1220.04 439.55 1176 420C1150.04 408.48 1146.05 407.27 1120 407.27C1112.09 407.27 1109.84 411.62 1108.09 420C1093.89 487.98 1124.4 520.33 1088.1 560C1060.35 590.33 1034.05 560 980 560C910 560 910 560 840 560C770 560 770 560 700 560C630 560 630 560 560 560C502.92 560 495.48 573.85 445.85 560C425.48 554.32 440.66 523.55 420 520.93C357.74 513.05 350.1 530.81 280 539C210.1 547.17 208.92 543.82 140 553.64C135.23 554.32 137.42 559.78 132.63 560C67.42 562.96 32.26 594.05 0 560C-34.05 524.05 0 490 0 420C0 350 0 350 0 280C0 210 0 210 0 140C0 88.81 -12.27 83.77 0 37.63" stroke="rgba(51, 121, 194, 0.58)" stroke-width="2"></path><path d="M280 235.79C246.98 241.49 224 264.57 224 280C224 292.35 252.65 283.24 280 291.35C350.65 312.3 357.87 341.87 420 338.11C451.56 336.2 467.38 305.88 467.38 280C467.38 259.9 447.47 252.63 420 246.15C353.78 230.53 344.98 224.57 280 235.79" stroke="rgba(185, 195, 255, 1)" stroke-width="2"></path><path d="M840 203.91C816.99 203.91 790 240.04 790 280C790 332.78 817.29 389.38 840 389.38C861.95 389.38 879.33 333.39 879.33 280C879.33 240.66 861.65 203.91 840 203.91" stroke="rgba(51, 121, 194, 0.58)" stroke-width="2"></path><path d="M0 75.27C23.11 31.83 31.23 23.25 74.47 0C101.23 -14.39 107.24 0 140 0C210 0 210 0 280 0C311.11 0 315.77 -12.6 342.22 0C385.77 20.74 379.57 35.3 420 66.67C469.79 105.3 522.67 104.29 522.67 140C522.67 174.8 471.86 207.69 420 207.69C365.53 207.69 360.87 178.47 310 140C290.87 125.54 301.31 101.82 280 101.82C216.31 101.82 210 120.91 140 140C140 140 140 140 140 140C113.34 210 86.67 214.06 86.67 280C86.67 318 103.18 336.71 140 347.88C199.84 366.03 213.39 325.26 280 338.65C353.39 353.4 360.77 418.55 420 404.15C481.39 389.23 475.24 345.13 521.23 280C545.24 245.99 526.98 214.36 560 205.88C616.37 191.41 636.9 208.12 700 234.1C726.9 245.18 737.9 252.16 740 280C744.9 345.11 702.83 353.62 714 420C726.39 493.62 791.62 514.88 787.11 560C784.62 584.88 743.56 560 700 560C630 560 630 560 560 560C529.85 560 520.31 577.74 499.69 560C450.31 517.51 473.76 455.38 420 439.53C363.92 423 352.18 486.34 280 495.25C212.18 503.62 202.09 457.3 140 474.09C82.36 489.68 94.03 527.17 40.53 560C24.03 570.12 4.55 575.72 0 560C-15.72 505.72 0 490 0 420C0 350 0 350 0 280C0 210 0 210 0 140C0 107.63 -14.13 101.83 0 75.27" stroke="rgba(51, 121, 194, 0.58)" stroke-width="2"></path><path d="M840 70C834.28 70 828.33 30.06 828.33 0C828.33 -4.94 834.16 0 840 0C845.6 0 851.2 -4.78 851.2 0C851.2 30.22 845.71 70 840 70" stroke="rgba(51, 121, 194, 0.58)" stroke-width="2"></path><path d="M855.14 140C869.64 93.08 924.15 119.96 980 81.52C1025.85 49.96 1013.17 26.42 1058.54 0C1083.17 -14.34 1089.27 0 1120 0C1150 0 1156.8 -15.05 1180 0C1226.8 30.36 1209.03 68.31 1260 90.81C1319.03 116.86 1334.76 80.78 1400 97.1C1433.06 105.37 1431.05 115.53 1456.6 140C1501.05 182.56 1510.11 180.99 1540 231.16C1551.81 250.99 1540 255.58 1540 280C1540 350 1540 350 1540 420C1540 490 1575 525 1540 560C1505 595 1470 560 1400 560C1376.66 560 1359.74 577.49 1353.33 560C1334.08 507.49 1373.48 480.03 1348.67 420C1326.82 367.12 1313.53 355.79 1260 334.19C1199.2 309.66 1179.52 305.17 1120 327.73C1066.33 348.08 1051.67 364.97 1033.62 420C1013.57 481.11 1062.23 511.87 1043.8 560C1035.42 581.87 1011.9 560 980 560C932.45 560 898.93 588.05 884.91 560C863.93 518.05 901.51 490.49 910 420C918.38 350.49 931.74 346.79 918.65 280C904.31 206.79 838.97 192.32 855.14 140" stroke="rgba(185, 195, 255, 1)" stroke-width="2"></path><path d="M0 112.9C20.64 112.9 58.1 114.92 58.6 140C59.77 198.47 30.71 209.91 3.33 280C1.41 284.91 0.85 290 0 290C-0.81 290 0 285 0 280C0 210 0 210 0 140C0 126.45 -8.66 112.9 0 112.9" stroke="rgba(185, 195, 255, 1)" stroke-width="2"></path><path d="M140 60.45C113.49 56.94 111.7 21.23 111.7 0C111.7 -9 125.85 0 140 0C210 0 210 0 280 0C286.81 0 293.61 -3.82 293.61 0C293.61 7.32 291.71 17.66 280 22.27C214.9 47.89 197.64 68.08 140 60.45" stroke="rgba(185, 195, 255, 1)" stroke-width="2"></path><path d="M372.5 140C372.5 124.6 396.51 108.33 420 108.33C442.42 108.33 464.33 124.58 464.33 140C464.33 155.03 442.39 169.23 420 169.23C396.48 169.23 372.5 155.05 372.5 140" stroke="rgba(51, 121, 194, 0.58)" stroke-width="2"></path><path d="M949.73 140C951.85 125.16 964.4 125.82 980 125.82C1001.93 125.82 1014.79 121.11 1024.8 140C1055.63 198.2 1073.73 217.16 1061.67 280C1051.33 333.83 1009.24 373.33 980 373.33C957.39 373.33 964.13 327.38 957.98 280C948.99 210.71 940.84 202.25 949.73 140" stroke="rgba(185, 195, 255, 1)" stroke-width="2"></path><path d="M1120 55C1110.71 55 1101.22 20.78 1101.22 0C1101.22 -6.72 1110.61 0 1120 0C1129.16 0 1138.33 -6.61 1138.33 0C1138.33 20.89 1129.27 55 1120 55" stroke="rgba(51, 121, 194, 0.58)" stroke-width="2"></path><path d="M1252.22 140C1252.22 137.7 1256.04 138.11 1260 138.11C1269.93 138.11 1270.24 137.7 1280 140C1340.24 154.2 1350.38 138.77 1400 171.11C1457.8 208.77 1452.43 222.06 1494.84 280C1522.43 317.68 1526.01 318.97 1540 362.35C1548.59 388.97 1540 391.17 1540 420C1540 448.83 1550.21 477.65 1540 477.65C1526.87 477.65 1521.7 443.03 1493.33 420C1451.7 386.21 1442.66 397.21 1400 364C1352.76 327.21 1345.84 329.4 1313.53 280C1275.84 222.4 1288.12 214.21 1260 150C1257.47 144.21 1252.22 143.64 1252.22 140" stroke="rgba(51, 121, 194, 0.58)" stroke-width="2"></path><path d="M183.08 420C183.08 403.55 232.61 385.95 280 385.95C315.13 385.95 348.11 403.49 348.11 420C348.11 436.27 314.99 451.5 280 451.5C232.48 451.5 183.08 436.32 183.08 420" stroke="rgba(51, 121, 194, 0.58)" stroke-width="2"></path><path d="M496 420C497.41 368.37 529.18 322.61 560 322.61C589.9 322.61 587.22 372.25 617.44 420C657.22 482.87 659.17 481.64 700 543.85C705.12 551.64 709.33 554.62 709.33 560C709.33 562.69 704.66 560 700 560C630 560 630 560 560 560C556.77 560 554.85 562.87 553.54 560C522.85 492.87 494.18 487.06 496 420" stroke="rgba(185, 195, 255, 1)" stroke-width="2"></path><path d="M950.94 560C950.94 527.63 967.68 474.44 980 474.44C991.96 474.44 999.49 524.99 999.49 560C999.49 567.77 989.74 560 980 560C965.47 560 950.94 570.41 950.94 560" stroke="rgba(51, 121, 194, 0.58)" stroke-width="2"></path></g><defs><mask id="SvgjsMask2919"><rect width="1440" height="560" fill="#ffffff"></rect></mask><linearGradient x1="50%" y1="100%" x2="50%" y2="0%" gradientUnits="userSpaceOnUse" id="SvgjsLinearGradient2920"><stop stop-color="rgba(14, 42, 71, 1)" offset="0"></stop><stop stop-color="rgba(241, 246, 255, 0)" offset="1"></stop></linearGradient></defs></svg>