<svg xmlns="http://www.w3.org/2000/svg" version="1.1" xmlns:xlink="http://www.w3.org/1999/xlink" xmlns:svgjs="http://svgjs.dev/svgjs" width="1440" height="560" preserveAspectRatio="none" viewBox="0 0 1440 560"><g mask="url(&quot;#SvgjsMask1006&quot;)" fill="none"><path d="M-244.22 244.66C-101.27 243.58 87.22 99.05 310.2 104.66 533.18 110.27 469.1 502.92 587.41 567.82" stroke="rgba(51,121,194,0.58)" stroke-width="2"></path><path d="M-229.14 249.8C-119.43 250.03-12.52 319.8 204.09 319.8 420.71 319.8 408.83 245.94 637.33 249.8 865.82 253.66 931.37 588.39 1070.56 611.03" stroke="rgba(51,121,194,0.58)" stroke-width="2"></path><path d="M-173.01 342.18C8.49 341.35 263.38 189.25 537.08 190.98 810.79 192.71 763.17 557.09 892.13 595.49" stroke="rgba(51,121,194,0.58)" stroke-width="2"></path><path d="M-245.72 498.15C-127.15 498.34-11.17 568.15 223.39 568.15 457.94 568.15 457.06 498.07 692.49 498.15 927.92 498.23 1038.39 647.55 1161.6 649.4" stroke="rgba(51,121,194,0.58)" stroke-width="2"></path><path d="M-217.34 112.22C-51.43 117.76 136.34 362.45 392.29 375.42 648.24 388.39 606.36 566.86 697.1 575.53" stroke="rgba(51,121,194,0.58)" stroke-width="2"></path></g><defs><mask id="SvgjsMask1006"><rect width="1440" height="560" fill="#ffffff"></rect></mask></defs></svg>