<svg xmlns="http://www.w3.org/2000/svg" version="1.1" xmlns:xlink="http://www.w3.org/1999/xlink" xmlns:svgjs="http://svgjs.dev/svgjs" width="1440" height="250" preserveAspectRatio="none" viewBox="0 0 1440 250"><g mask="url(&quot;#SvgjsMask2157&quot;)" fill="none"><path d="M39 250L289 0L361 0L111 250z" fill="url(&quot;#SvgjsLinearGradient2158&quot;)"></path><path d="M285.6 250L535.6 0L651.1 0L401.1 250z" fill="url(&quot;#SvgjsLinearGradient2158&quot;)"></path><path d="M493.20000000000005 250L743.2 0L1041.7 0L791.7 250z" fill="url(&quot;#SvgjsLinearGradient2158&quot;)"></path><path d="M745.8000000000001 250L995.8000000000001 0L1048.3000000000002 0L798.3000000000001 250z" fill="url(&quot;#SvgjsLinearGradient2158&quot;)"></path><path d="M1436 250L1186 0L1087 0L1337 250z" fill="url(&quot;#SvgjsLinearGradient2159&quot;)"></path><path d="M1198.4 250L948.4000000000001 0L682.9000000000001 0L932.9000000000001 250z" fill="url(&quot;#SvgjsLinearGradient2159&quot;)"></path><path d="M918.8 250L668.8 0L623.8 0L873.8 250z" fill="url(&quot;#SvgjsLinearGradient2159&quot;)"></path><path d="M709.1999999999999 250L459.19999999999993 0L135.19999999999993 0L385.19999999999993 250z" fill="url(&quot;#SvgjsLinearGradient2159&quot;)"></path><path d="M1229.6646696030903 250L1440 39.66466960309032L1440 250z" fill="url(&quot;#SvgjsLinearGradient2158&quot;)"></path><path d="M0 250L210.33533039690968 250L 0 39.66466960309032z" fill="url(&quot;#SvgjsLinearGradient2159&quot;)"></path></g><defs><mask id="SvgjsMask2157"><rect width="1440" height="250" fill="#ffffff"></rect></mask><linearGradient x1="0%" y1="100%" x2="100%" y2="0%" id="SvgjsLinearGradient2158"><stop stop-color="rgba(165, 161, 161, 1)" offset="0"></stop><stop stop-opacity="0" stop-color="rgba(165, 161, 161, 1)" offset="0.66"></stop></linearGradient><linearGradient x1="100%" y1="100%" x2="0%" y2="0%" id="SvgjsLinearGradient2159"><stop stop-color="rgba(165, 161, 161, 1)" offset="0"></stop><stop stop-opacity="0" stop-color="rgba(165, 161, 161, 1)" offset="0.66"></stop></linearGradient></defs></svg>