<svg xmlns="http://www.w3.org/2000/svg" version="1.1" xmlns:xlink="http://www.w3.org/1999/xlink" xmlns:svgjs="http://svgjs.dev/svgjs" width="1440" height="560" preserveAspectRatio="none" viewBox="0 0 1440 560"><g mask="url(&quot;#SvgjsMask2073&quot;)" fill="none"><rect width="1440" height="560" x="0" y="0" fill="url(&quot;#SvgjsLinearGradient2074&quot;)"></rect><path d="M1440 0L1398.07 0L1440 146.71z" fill="rgba(255, 255, 255, .1)"></path><path d="M1398.07 0L1440 146.71L1440 241.88L929.27 0z" fill="rgba(255, 255, 255, .075)"></path><path d="M929.27 0L1440 241.88L1440 415.63L647.0999999999999 0z" fill="rgba(255, 255, 255, .05)"></path><path d="M647.0999999999999 0L1440 415.63L1440 473.18L533.5099999999999 0z" fill="rgba(255, 255, 255, .025)"></path><path d="M0 560L25.98 560L0 462.93z" fill="rgba(0, 0, 0, .1)"></path><path d="M0 462.93L25.98 560L88 560L0 314.90999999999997z" fill="rgba(0, 0, 0, .075)"></path><path d="M0 314.90999999999997L88 560L470.9 560L0 221.72999999999996z" fill="rgba(0, 0, 0, .05)"></path><path d="M0 221.73000000000002L470.9 560L1016.16 560L0 83.56000000000003z" fill="rgba(0, 0, 0, .025)"></path></g><defs><mask id="SvgjsMask2073"><rect width="1440" height="560" fill="#ffffff"></rect></mask><linearGradient x1="84.72%" y1="139.29%" x2="15.28%" y2="-39.29%" gradientUnits="userSpaceOnUse" id="SvgjsLinearGradient2074"><stop stop-color="rgba(225, 225, 225, 1)" offset="0"></stop><stop stop-color="rgba(232, 232, 232, 1)" offset="1"></stop></linearGradient></defs></svg>